#!OML:ASF X:\für Bonn\!DataBase\2005_08_11_Bastian_Final\c3d\Bastian.ASF
:FULLY-SPECIFIED
:DEGREES
153
root 6.05644 10.8086 -3.17584 146.407 76.7778 -210.891
lowerback 70.8187 -11.8228 9.96349
upperback 19.5544 2.23252 6.11523
thorax 1.50162 3.58407 2.36862
lowerneck -0.411613 -14.5426 1.53523
upperneck -24.6756 -16.5799 21.0147
head -5.64035 -10.0953 7.08677
rclavicle -5.08889e-014 -8.56762e-014
rhumerus 32.1178 -9.54217 -44.9228
rradius 30.47
rwrist 11.1982
rhand -48.6577 2.66113
rfingers 7.12502
rthumb -21.3002 -26.1883
lclavicle -5.08889e-014 -8.56762e-014
lhumerus 6.02712 -32.5636 74.7279
lradius 48.7235
lwrist 24.4999
lhand -12.0924 -10.0988
lfingers 7.12502
lthumb 13.9679 19.412
rfemur -79.1032 -11.3684 11.2883
rtibia 114.542
rfoot -24.4971 -1.37324
rtoes -16.1881
lfemur -69.7079 -0.37459 -36.2102
ltibia 113.787
lfoot -29.6171 -12.8622
ltoes 22.1034
154
root 6.06987 10.7506 -3.1729 147.21 76.789 -209.913
lowerback 70.6481 -11.7422 9.97325
upperback 19.6814 2.33268 6.26545
thorax 1.62145 3.62658 2.49686
lowerneck -0.471312 -14.5662 1.67347
upperneck -24.6187 -16.6218 20.9623
head -5.62908 -10.1187 7.04306
rclavicle 5.08889e-014 3.37934e-014
rhumerus 31.7105 -9.54703 -44.8579
rradius 30.8103
rwrist 11.3399
rhand -48.9198 2.86793
rfingers 7.12502
rthumb -21.552 -25.9529
lclavicle 5.08889e-014 3.37934e-014
lhumerus 5.99116 -32.7024 74.8634
lradius 48.7869
lwrist 24.634
lhand -12.0371 -10.1771
lfingers 7.12502
lthumb 14.0212 19.33
rfemur -79.2173 -11.48 11.5161
rtibia 115.055
rfoot -24.7264 -1.46003
rtoes -16.1002
lfemur -69.8827 -0.329341 -36.0563
ltibia 114.383
lfoot -29.8647 -12.9354
ltoes 22.031
155
root 6.08344 10.6963 -3.16999 147.919 76.79 -209.056
lowerback 70.4742 -11.6463 9.98338
upperback 19.778 2.44013 6.41921
thorax 1.7042 3.66755 2.62335
lowerneck -0.446985 -14.5958 1.82186
upperneck -24.6484 -16.6581 20.9015
head -5.66265 -10.1467 7.012
rclavicle -1.11319e-013 -5.58585e-014
rhumerus 31.3356 -9.60371 -44.8531
rradius 31.0288
rwrist 11.5612
rhand -49.1773 3.1653
rfingers 7.12502
rthumb -21.7993 -25.627
lclavicle -1.11319e-013 -5.58585e-014
lhumerus 5.9259 -32.8803 75.0182
lradius 48.8761
lwrist 24.8074
lhand -11.9319 -10.2199
lfingers 7.12502
lthumb 14.1226 19.2801
rfemur -79.3511 -11.5789 11.7084
rtibia 115.546
rfoot -24.936 -1.56583
rtoes -16.1071
lfemur -70.0362 -0.328036 -35.9065
ltibia 114.93
lfoot -30.0656 -13.0614
ltoes 22.2343
156
root 6.09598 10.6453 -3.16754 148.48 76.7727 -208.323
lowerback 70.3233 -11.5626 9.96217
upperback 19.8884 2.52107 6.54348
thorax 1.80453 3.7015 2.74014
lowerneck -0.461617 -14.6043 1.99378
upperneck -24.6624 -16.662 20.854
head -5.68891 -10.1592 6.97733
rclavicle -2.54444e-014 9.40251e-014
rhumerus 31.0679 -9.70468 -44.9296
rradius 31.1557
rwrist 11.843
rhand -49.389 3.39478
rfingers 7.12502
rthumb -22.0026 -25.3737
lclavicle -2.54444e-014 9.40251e-014
lhumerus 5.88804 -32.9419 75.1727
lradius 48.9389
lwrist 24.8755
lhand -11.7812 -10.3062
lfingers 7.12502
lthumb 14.2679 19.1837
rfemur -79.4251 -11.6977 11.8636
rtibia 116.001
rfoot -25.1687 -1.64687
rtoes -16.1825
lfemur -70.1457 -0.317654 -35.8063
ltibia 115.442
lfoot -30.2972 -13.1085
ltoes 22.1004
157
root 6.10682 10.599 -3.16502 148.927 76.7371 -207.702
lowerback 70.2169 -11.4808 9.93238
upperback 19.9643 2.6022 6.6767
thorax 1.86632 3.73029 2.87001
lowerneck -0.421604 -14.6176 2.12445
upperneck -24.6981 -16.6736 20.7922
head -5.72764 -10.174 6.95056
rclavicle 1.27222e-014 -3.18055e-015
rhumerus 30.7725 -9.75315 -44.9289
rradius 31.2525
rwrist 12.0142
rhand -49.5889 3.68006
rfingers 7.12502
rthumb -22.1945 -25.0658
lclavicle 1.27222e-014 -3.18055e-015
lhumerus 5.83124 -33.0691 75.3485
lradius 49.0276
lwrist 24.9442
lhand -11.7017 -10.3326
lfingers 7.12502
lthumb 14.3444 19.1518
rfemur -79.4606 -11.8004 11.9726
rtibia 116.418
rfoot -25.368 -1.74218
rtoes -16.15
lfemur -70.2032 -0.349892 -35.7123
ltibia 115.89
lfoot -30.4881 -13.2029
ltoes 22.2736
158
root 6.11727 10.5564 -3.16303 149.143 76.6832 -207.328
lowerback 70.111 -11.3788 9.88699
upperback 20.0202 2.68672 6.79542
thorax 1.90305 3.75924 2.9857
lowerneck -0.315396 -14.6406 2.29251
upperneck -24.7962 -16.6814 20.7454
head -5.80092 -10.1972 6.9363
rclavicle 4.13472e-014 -4.1546e-014
rhumerus 30.4724 -9.78468 -44.9046
rradius 31.2883
rwrist 12.1805
rhand -49.8224 3.91123
rfingers 7.12502
rthumb -22.4187 -24.8078
lclavicle 4.13472e-014 -4.1546e-014
lhumerus 5.79014 -33.192 75.5171
lradius 49.083
lwrist 24.9891
lhand -11.5786 -10.4166
lfingers 7.12502
lthumb 14.4631 19.0593
rfemur -79.5117 -11.9292 12.0235
rtibia 116.817
rfoot -25.5483 -1.78181
rtoes -16.1756
lfemur -70.2569 -0.400505 -35.6942
ltibia 116.293
lfoot -30.6512 -13.1791
ltoes 22.2054
159
root 6.1265 10.5182 -3.1599 149.079 76.5772 -207.261
lowerback 70.0291 -11.262 9.77145
upperback 20.0559 2.74233 6.90465
thorax 1.91129 3.7683 3.12598
lowerneck -0.343309 -14.6762 2.45951
upperneck -24.7671 -16.7433 20.6418
head -5.8111 -10.2305 6.87989
rclavicle -1.20861e-013 -7.41467e-014
rhumerus 30.2817 -9.87378 -44.9743
rradius 31.209
rwrist 12.3913
rhand -50.0391 4.25773
rfingers 7.12502
rthumb -22.6267 -24.436
lclavicle -1.20861e-013 -7.41467e-014
lhumerus 5.71151 -33.2852 75.6876
lradius 49.1855
lwrist 25.0594
lhand -11.5263 -10.4388
lfingers 7.12502
lthumb 14.5135 19.0335
rfemur -79.558 -12.0794 11.9709
rtibia 117.174
rfoot -25.7393 -1.79726
rtoes -16.0885
lfemur -70.295 -0.477881 -35.762
ltibia 116.63
lfoot -30.8085 -13.1597
ltoes 22.1747
160
root 6.1352 10.4865 -3.15859 148.832 76.47 -207.356
lowerback 70.0166 -11.167 9.66871
upperback 20.0483 2.78919 6.97397
thorax 1.87999 3.7771 3.2208
lowerneck -0.472151 -14.7402 2.67736
upperneck -24.6225 -16.8744 20.4818
head -5.77245 -10.2882 6.77991
rclavicle -6.67916e-014 5.02925e-014
rhumerus 30.0563 -9.90592 -44.992
rradius 31.0951
rwrist 12.456
rhand -50.2072 4.5455
rfingers 7.12502
rthumb -22.788 -24.1285
lclavicle -6.67916e-014 5.02925e-014
lhumerus 5.64278 -33.4173 75.825
lradius 49.2752
lwrist 25.1469
lhand -11.5059 -10.4404
lfingers 7.12502
lthumb 14.5331 19.0305
rfemur -79.537 -12.2269 11.8733
rtibia 117.499
rfoot -25.9298 -1.78495
rtoes -15.9926
lfemur -70.2291 -0.565585 -35.8645
ltibia 116.894
lfoot -30.9685 -13.1454
ltoes 22.2339
161
root 6.14164 10.4573 -3.15645 148.218 76.3055 -207.85
lowerback 69.9866 -11.0391 9.49243
upperback 20.0421 2.81546 7.03102
thorax 1.84144 3.77224 3.33438
lowerneck -0.557419 -14.7951 2.88283
upperneck -24.5831 -16.9708 20.3579
head -5.77333 -10.3369 6.70674
rclavicle 8.5875e-014 -1.86858e-014
rhumerus 29.9127 -10.0256 -45.1273
rradius 30.9115
rwrist 12.5287
rhand -50.3382 4.85769
rfingers 7.12502
rthumb -22.9137 -23.8008
lclavicle 8.5875e-014 -1.86858e-014
lhumerus 5.59116 -33.5881 75.9104
lradius 49.3707
lwrist 25.1989
lhand -11.5826 -10.4305
lfingers 7.12502
lthumb 14.4592 19.0457
rfemur -79.5547 -12.4199 11.6715
rtibia 117.792
rfoot -26.0807 -1.77551
rtoes -16.0606
lfemur -70.1842 -0.692517 -36.0812
ltibia 117.108
lfoot -31.0932 -13.0789
ltoes 22.1392
162
root 6.1483 10.4338 -3.15413 147.162 76.0854 -208.762
lowerback 70.0095 -10.8834 9.25175
upperback 20.0198 2.84174 7.0839
thorax 1.7813 3.76364 3.46805
lowerneck -0.645671 -14.849 3.03534
upperneck -24.517 -17.0649 20.2734
head -5.75527 -10.3823 6.64889
rclavicle 6.36111e-014 -1.03368e-014
rhumerus 29.7102 -10.0898 -45.1238
rradius 30.7282
rwrist 12.531
rhand -50.4859 5.07074
rfingers 7.12502
rthumb -23.0554 -23.5701
lclavicle 6.36111e-014 -1.03368e-014
lhumerus 5.60292 -33.77 75.999
lradius 49.4288
lwrist 25.2662
lhand -11.6309 -10.4773
lfingers 7.12502
lthumb 14.4126 19.0023
rfemur -79.5162 -12.6407 11.3159
rtibia 118.056
rfoot -26.2537 -1.6437
rtoes -16.0121
lfemur -70.0224 -0.814247 -36.4252
ltibia 117.238
lfoot -31.191 -13.0147
ltoes 22.2206
163
root 6.15489 10.4181 -3.1516 147.059 75.9822 -208.817
lowerback 69.9735 -10.8081 9.23322
upperback 19.9616 2.89957 7.12951
thorax 1.69971 3.77955 3.49644
lowerneck -0.663296 -14.9006 3.20069
upperneck -24.5295 -17.1334 20.223
head -5.77488 -10.4253 6.61418
rclavicle 2.22639e-014 -5.82439e-014
rhumerus 29.4919 -10.1218 -45.107
rradius 30.5312
rwrist 12.3929
rhand -50.5936 5.32853
rfingers 7.12502
rthumb -23.1587 -23.2994
lclavicle 2.22639e-014 -5.82439e-014
lhumerus 5.60598 -33.9991 76.0642
lradius 49.4994
lwrist 25.3554
lhand -11.8256 -10.6591
lfingers 7.12502
lthumb 14.2251 18.8338
rfemur -79.5019 -12.7422 11.2446
rtibia 118.231
rfoot -26.3791 -1.71395
rtoes -16.1583
lfemur -70.0014 -0.933342 -36.4894
ltibia 117.371
lfoot -31.2797 -12.9955
ltoes 22.2311
164
root 6.16092 10.408 -3.14981 147.578 75.9917 -208.3
lowerback 69.8651 -10.776 9.36113
upperback 19.9281 2.99038 7.18867
thorax 1.65567 3.81914 3.47322
lowerneck -0.689683 -14.9468 3.2995
upperneck -24.5615 -17.1922 20.2024
head -5.78931 -10.461 6.59696
rclavicle -1.90833e-014 -2.18663e-014
rhumerus 29.2935 -10.2147 -45.0797
rradius 30.3331
rwrist 12.3339
rhand -50.6694 5.40818
rfingers 7.12502
rthumb -23.2315 -23.2106
lclavicle -1.90833e-014 -2.18663e-014
lhumerus 5.65747 -34.2253 76.1071
lradius 49.589
lwrist 25.4594
lhand -12.0463 -10.9151
lfingers 7.12502
lthumb 14.0124 18.5926
rfemur -79.523 -12.7313 11.3748
rtibia 118.341
rfoot -26.4596 -1.81616
rtoes -16.1781
lfemur -70.0666 -0.984964 -36.3566
ltibia 117.482
lfoot -31.3168 -13.0429
ltoes 22.2786
165
root 6.1662 10.4021 -3.14793 147.955 75.9918 -207.914
lowerback 69.7636 -10.725 9.45271
upperback 19.9072 3.08162 7.24994
thorax 1.62257 3.85757 3.4664
lowerneck -0.733483 -14.9884 3.35353
upperneck -24.6014 -17.2416 20.2135
head -5.79555 -10.4906 6.59322
rclavicle 5.725e-014 5.62561e-014
rhumerus 29.1391 -10.3062 -45.0438
rradius 30.0865
rwrist 12.2543
rhand -50.7599 5.47865
rfingers 7.12502
rthumb -23.3183 -23.1291
lclavicle 5.725e-014 5.62561e-014
lhumerus 5.74767 -34.3964 76.1774
lradius 49.6266
lwrist 25.594
lhand -12.2199 -11.155
lfingers 7.12502
lthumb 13.8451 18.3642
rfemur -79.505 -12.7242 11.4557
rtibia 118.411
rfoot -26.5256 -1.87044
rtoes -15.991
lfemur -70.0823 -1.0409 -36.252
ltibia 117.566
lfoot -31.3604 -13.0955
ltoes 22.3694
166
root 6.17055 10.3991 -3.1454 148.264 75.96 -207.582
lowerback 69.6554 -10.6871 9.54437
upperback 19.9186 3.1695 7.31705
thorax 1.62675 3.89925 3.46996
lowerneck -0.799322 -15.0316 3.38056
upperneck -24.6889 -17.2853 20.261
head -5.8068 -10.5197 6.60554
rclavicle 2.22639e-014 1.78707e-013
rhumerus 29.0287 -10.4313 -44.9849
rradius 29.8062
rwrist 12.1213
rhand -50.8473 5.46173
rfingers 7.12502
rthumb -23.4022 -23.1354
lclavicle 2.22639e-014 1.78707e-013
lhumerus 5.89881 -34.5436 76.2326
lradius 49.7006
lwrist 25.6525
lhand -12.2936 -11.2576
lfingers 7.12502
lthumb 13.7741 18.2664
rfemur -79.4487 -12.7362 11.5159
rtibia 118.446
rfoot -26.5763 -1.98632
rtoes -16.1215
lfemur -70.0638 -1.09304 -36.1891
ltibia 117.613
lfoot -31.4199 -13.0862
ltoes 22.0993
167
root 6.17411 10.4 -3.14374 148.522 75.9333 -207.271
lowerback 69.576 -10.6579 9.61896
upperback 19.9318 3.24578 7.38296
thorax 1.63428 3.93538 3.4847
lowerneck -0.808119 -15.0731 3.36652
upperneck -24.8156 -17.3207 20.3127
head -5.83592 -10.5456 6.63308
rclavicle -6.04305e-014 -2.38542e-015
rhumerus 28.9386 -10.534 -44.9033
rradius 29.5539
rwrist 12.0242
rhand -50.8717 5.36394
rfingers 7.12502
rthumb -23.4256 -23.2302
lclavicle -6.04305e-014 -2.38542e-015
lhumerus 6.0271 -34.6895 76.3081
lradius 49.8064
lwrist 25.7983
lhand -12.3653 -11.2576
lfingers 7.12502
lthumb 13.705 18.2711
rfemur -79.3292 -12.7389 11.5491
rtibia 118.462
rfoot -26.6481 -2.02191
rtoes -16.1106
lfemur -69.971 -1.15197 -36.1102
ltibia 117.613
lfoot -31.4409 -13.1308
ltoes 22.188
